HIERARCHY
ROOT Hips
{
	OFFSET 0.000000 0.000000 0.000000
	CHANNELS 6 Xposition Yposition Zposition Zrotation Yrotation Xrotation 
	JOINT LHipJoint
	{
		OFFSET 0.000000 0.000000 0.000000
		CHANNELS 3 Zrotation Yrotation Xrotation
		JOINT LeftUpLeg
		{
			OFFSET 1.363060 -1.794630 0.839290
			CHANNELS 3 Zrotation Yrotation Xrotation
			JOINT LeftLeg
			{
				OFFSET 2.448110 -6.726130 0.000000
				CHANNELS 3 Zrotation Yrotation Xrotation
				JOINT LeftFoot
				{
					OFFSET 2.562200 -7.039590 0.000000
					CHANNELS 3 Zrotation Yrotation Xrotation
					JOINT LeftToeBase
					{
						OFFSET 0.157640 -0.433110 2.322550
						CHANNELS 3 Zrotation Yrotation Xrotation
						End Site
						{
							OFFSET 0.000000 0.000000 0.000000
						}
					}
				}
			}
		}
	}
	JOINT RHipJoint
	{
		OFFSET 0.000000 0.000000 0.000000
		CHANNELS 3 Zrotation Yrotation Xrotation
		JOINT RightUpLeg
		{
			OFFSET -1.305520 -1.794630 0.839290
			CHANNELS 3 Zrotation Yrotation Xrotation
			JOINT RightLeg
			{
				OFFSET -2.542530 -6.985550 0.000000
				CHANNELS 3 Zrotation Yrotation Xrotation
				JOINT RightFoot
				{
					OFFSET -2.568260 -7.056230 0.000000
					CHANNELS 3 Zrotation Yrotation Xrotation
					JOINT RightToeBase
					{
						OFFSET -0.164730 -0.452590 2.363150
						CHANNELS 3 Zrotation Yrotation Xrotation
						End Site
						{
							OFFSET 0.000000 0.000000 0.000000
						}
					}
				}
			}
		}
	}
	JOINT LowerBack
	{
		OFFSET 0.000000 0.000000 0.000000
		CHANNELS 3 Zrotation Yrotation Xrotation
		JOINT Spine
		{
			OFFSET 0.028270 2.035590 -0.193380
			CHANNELS 3 Zrotation Yrotation Xrotation
			JOINT Spine1
			{
				OFFSET 0.056720 2.048850 -0.042750
				CHANNELS 3 Zrotation Yrotation Xrotation
				JOINT Neck
				{
					OFFSET 0.000000 0.000000 0.000000
					CHANNELS 3 Zrotation Yrotation Xrotation
					JOINT Neck1
					{
						OFFSET -0.054170 1.746240 0.172020
						CHANNELS 3 Zrotation Yrotation Xrotation
						JOINT Head
						{
							OFFSET 0.104070 1.761360 -0.123970
							CHANNELS 3 Zrotation Yrotation Xrotation
							End Site
							{
								OFFSET 0.000000 0.000000 0.000000
							}
						}
					}
				}
				JOINT LeftShoulder
				{
					OFFSET 0.000000 0.000000 0.000000
					CHANNELS 3 Zrotation Yrotation Xrotation
					JOINT LeftArm
					{
						OFFSET 3.362410 1.200890 -0.311210
						CHANNELS 3 Zrotation Yrotation Xrotation
						JOINT LeftForeArm
						{
							OFFSET 4.983000 -0.000000 -0.000000
							CHANNELS 3 Zrotation Yrotation Xrotation
							JOINT LeftHand
							{
								OFFSET 3.483560 -0.000000 -0.000000
								CHANNELS 3 Zrotation Yrotation Xrotation
								JOINT LeftFingerBase
								{
									OFFSET 0.000000 0.000000 0.000000
									CHANNELS 3 Zrotation Yrotation Xrotation
									JOINT LeftHandIndex1
									{
										OFFSET 0.715260 -0.000000 -0.000000
										CHANNELS 3 Zrotation Yrotation Xrotation
										End Site
										{
											OFFSET 0.000000 0.000000 0.000000
										}
									}
								}
								JOINT LThumb
								{
									OFFSET 0.000000 0.000000 0.000000
									CHANNELS 3 Zrotation Yrotation Xrotation
									End Site
									{
										OFFSET 0.000000 0.000000 0.000000
									}
								}
							}
						}
					}
				}
				JOINT RightShoulder
				{
					OFFSET 0.000000 0.000000 0.000000
					CHANNELS 3 Zrotation Yrotation Xrotation
					JOINT RightArm
					{
						OFFSET -3.136600 1.374050 -0.404650
						CHANNELS 3 Zrotation Yrotation Xrotation
						JOINT RightForeArm
						{
							OFFSET -5.241900 -0.000000 -0.000000
							CHANNELS 3 Zrotation Yrotation Xrotation
							JOINT RightHand
							{
								OFFSET -3.444170 -0.000000 -0.000000
								CHANNELS 3 Zrotation Yrotation Xrotation
								JOINT RightFingerBase
								{
									OFFSET 0.000000 0.000000 0.000000
									CHANNELS 3 Zrotation Yrotation Xrotation
									JOINT RightHandIndex1
									{
										OFFSET -0.622530 -0.000000 -0.000000
										CHANNELS 3 Zrotation Yrotation Xrotation
										End Site
										{
											OFFSET 0.000000 0.000000 0.000000
										}
									}
								}
								JOINT RThumb
								{
									OFFSET 0.000000 0.000000 0.000000
									CHANNELS 3 Zrotation Yrotation Xrotation
									End Site
									{
										OFFSET 0.000000 0.000000 0.000000
									}
								}
							}
						}
					}
				}
			}
		}
	}
}
MOTION
Frames: 6
Frame Time: 0.008333
10.196837 17.801739 13.355976 4.220378 9.345108 10.285800 -1.029166 3.610711 5.141056 -14.843469 8.959329 7.479718 -2.238700 2.976759 14.431587 2.235222 0.786097 34.317735 0.299720 -3.467801 -9.588839 -1.241501 1.028401 -4.165152 12.217186 10.152403 -38.873107 -0.047004 -13.633412 31.835357 -0.106358 -4.376637 13.558123 -0.832764 5.795562 -16.199948 -4.988791 -5.061058 -2.740692 1.440384 -6.309990 -5.283756 6.407290 -4.247590 6.965057 -9.327417 -1.727230 -18.308906 5.319070 -0.137260 8.876133 5.365966 -0.472753 10.938378 -0.443899 -7.360250 -0.472850 -76.163007 -19.535911 43.672380 22.857659 -31.583718 -8.634000 -0.169972 1.253207 -14.330244 21.864528 -26.303952 -10.491941 -7.125000 0.000000 0.000000 -5.062470 0.624360 5.026655 0.177694 6.494142 0.458040 77.652659 -24.074753 8.217508 -6.283462 12.786766 -1.842160 3.255111 1.088552 3.000299 -27.884578 -18.584928 11.324941 7.125000 0.000000 0.000000 -2.860982 -52.324383 0.514396
10.193396 17.802767 13.496455 3.962991 9.109551 10.238269 -1.052684 3.451605 5.052222 -14.630109 9.114172 6.091427 -1.812630 4.052780 17.329100 2.346513 0.516294 34.695100 0.401525 -4.048600 -11.216195 -1.216612 1.045276 -4.116201 12.768023 10.074672 -38.809262 -0.138099 -13.734413 32.311978 -0.203577 -3.953296 13.668167 -0.680318 5.259088 -14.652365 -4.734256 -4.960172 -2.702737 1.452435 -6.207783 -5.282857 6.431544 -4.170650 6.919331 -9.407942 -1.763656 -18.265844 5.310452 -0.158701 8.795303 5.382510 -0.485248 10.883128 -0.440666 -7.347199 -0.482984 -76.459975 -19.210101 43.461904 22.765433 -31.525728 -8.589526 -0.164933 1.252714 -14.104289 21.797961 -26.315516 -10.460531 -7.125000 0.000000 0.000000 -5.102908 0.627486 5.066879 0.186367 6.529675 0.471076 77.623137 -23.862167 7.884496 -6.316819 12.800696 -1.850787 3.246898 1.086770 3.233101 -27.684863 -18.683621 11.294408 7.125000 0.000000 0.000000 -2.622781 -52.409272 0.478604
10.188063 17.801086 13.635400 3.722509 8.874405 10.244590 -1.048374 3.322675 4.958892 -14.438802 9.236388 4.968705 -1.411635 4.936798 19.732304 2.411455 0.457484 35.071429 0.494942 -4.498467 -12.485292 -1.205071 1.052110 -4.062252 13.317302 10.011064 -38.777886 -0.222357 -13.829852 32.762233 -0.300678 -3.515382 13.714831 -0.568197 4.816714 -13.388741 -4.515018 -4.854122 -2.677728 1.466145 -6.098297 -5.294424 6.479648 -4.089286 6.809270 -9.466933 -1.795395 -18.178154 5.282190 -0.183135 8.707053 5.371617 -0.500179 10.816281 -0.428554 -7.345148 -0.495574 -76.772728 -18.862044 43.304943 22.638729 -31.431659 -8.523709 -0.167445 1.257871 -13.911482 21.840334 -26.336937 -10.494752 -7.125000 0.000000 0.000000 -5.077880 0.590077 5.045199 0.193082 6.568588 0.478092 77.618037 -23.764732 7.828769 -6.424922 12.910091 -1.879307 3.245147 1.081403 3.228789 -27.703224 -18.676691 11.294780 7.125000 0.000000 0.000000 -2.642601 -52.397954 0.481474
10.175036 17.803919 13.779722 3.288273 8.685112 10.233821 -1.034124 3.240065 4.864164 -14.001427 9.264154 3.910698 -0.982071 5.741963 21.904164 2.422856 0.793738 35.587259 0.504769 -4.552626 -12.637072 -1.180976 1.031719 -3.991185 14.020605 10.154272 -38.634208 -0.305813 -13.917757 33.198126 -0.331504 -3.226788 13.388229 -0.532360 4.675411 -12.985118 -4.154103 -4.748483 -2.727015 1.490938 -5.993826 -5.304857 6.487597 -4.005441 6.697166 -9.430536 -1.794114 -17.968309 5.226830 -0.209364 8.622616 5.310815 -0.511369 10.693551 -0.412027 -7.338159 -0.492970 -76.947764 -18.468526 43.306673 22.476345 -31.310306 -8.435482 -0.175028 1.263465 -13.888504 21.859792 -26.397271 -10.531204 -7.125000 0.000000 0.000000 -5.070772 0.515785 5.044749 0.211966 6.589522 0.487724 77.633548 -23.802935 8.229495 -6.578825 13.098159 -1.919093 3.241849 1.098397 2.787969 -27.828653 -18.633094 11.322823 7.125000 0.000000 0.000000 -2.787572 -52.363750 0.505393
10.158342 17.808904 13.926609 2.761665 8.517680 10.214904 -1.015134 3.179538 4.768770 -13.446741 9.246892 2.883544 -0.538888 6.509537 23.965731 2.408731 1.318337 36.169596 0.474746 -4.418134 -12.256178 -1.150896 0.998349 -3.911958 14.797338 10.396077 -38.436991 -0.388888 -14.002069 33.627173 -0.330732 -3.009381 12.883674 -0.532891 4.677643 -12.991495 -3.725646 -4.643039 -2.811722 1.521014 -5.891746 -5.314751 6.476403 -3.920414 6.584088 -9.348662 -1.777091 -17.700229 5.158550 -0.236450 8.539997 5.226219 -0.520774 10.544180 -0.393394 -7.328816 -0.483123 -77.057143 -18.053334 43.384058 22.296950 -31.175944 -8.336572 -0.185029 1.269267 -13.946492 21.868325 -26.476155 -10.568720 -7.125000 0.000000 0.000000 -5.072206 0.423909 5.054420 0.236652 6.601886 0.498603 77.658886 -23.905804 8.847833 -6.754563 13.323734 -1.964250 3.237814 1.126052 2.139047 -28.005125 -18.572015 11.364058 7.125000 0.000000 0.000000 -2.992206 -52.318636 0.539349
10.157183 17.822372 14.066903 2.512016 8.518178 10.093513 -0.969223 3.100952 4.639823 -13.220162 8.963550 2.171854 -0.059913 7.261373 25.950009 2.289497 2.230001 36.567108 0.389617 -3.977810 -11.018095 -1.122924 0.974510 -3.825095 15.317527 10.148826 -38.117891 -0.454629 -14.036982 33.959186 -0.404132 -2.580850 12.525270 -0.556243 4.775846 -13.270698 -3.446896 -4.600262 -2.708287 1.535941 -5.856581 -5.309986 6.409888 -3.875094 6.507898 -9.289979 -1.795144 -17.516123 5.095154 -0.296504 8.456625 5.161443 -0.545436 10.430729 -0.395332 -7.326455 -0.469439 -77.150477 -17.760637 43.568248 22.068389 -30.977588 -8.207374 -0.205193 1.283062 -13.942480 22.064665 -26.575500 -10.721519 -7.125000 0.000000 0.000000 -4.961442 0.260362 4.957133 0.245266 6.624551 0.512889 77.644217 -23.849059 9.543549 -6.916234 13.541752 -2.013663 3.235300 1.192079 1.347911 -28.093037 -18.769337 11.524761 7.125000 0.000000 0.000000 -3.067358 -52.576564 0.572670
